<svg xmlns="http://www.w3.org/2000/svg" viewBox="0 0 333334 296848" shape-rendering="geometricPrecision" text-rendering="geometricPrecision" image-rendering="optimizeQuality" fill-rule="evenodd" clip-rule="evenodd"><path d="M333334 148458c0-22082-27653-43009-70050-55986 9784-43213 5436-77592-13725-88599-4416-2582-9580-3805-15219-3805v15152c3125 0 5639 611 7746 1767 9240 5300 13249 25479 10124 51434-748 6387-1970 13113-3465 19976-13317-3261-27857-5775-43145-7406-9172-12570-18685-23984-28265-33972 22150-20587 42941-31866 57073-31866V1c-18685 0-43145 13317-67876 36418C141800 13454 117341 273 98656 273v15151c14064 0 34923 11211 57073 31662-9512 9988-19024 21334-28061 33904-15356 1631-29895 4144-43213 7474-1563-6794-2718-13385-3533-19704-3194-25955 747-46134 9920-51502 2038-1223 4688-1767 7813-1767V339c-5707 0-10871 1223-15355 3805-19093 11007-23373 45319-13521 88396C27518 105585 0 126444 0 148458c0 22082 27653 43009 70050 55986-9784 43213-5435 77593 13725 88599 4417 2582 9580 3805 15287 3805 18685 0 43145-13317 67876-36418 24732 22965 49191 36146 67876 36146 5707 0 10871-1223 15356-3805 19092-11007 23372-45319 13521-88395 42125-12977 69643-33904 69643-55918zm-135684 0c0-17149-13902-31050-31050-31050s-31050 13902-31050 31050 13902 31050 31050 31050c17149 0 31050-13902 31050-31050zM98588 272zm146284 102867c-2514 8765-5639 17802-9172 26838-2786-5435-5707-10871-8901-16306-3125-5436-6455-10735-9784-15899 9648 1427 18956 3193 27857 5367zm-31119 72361c-5300 9172-10735 17869-16374 25955-10124 883-20383 1359-30711 1359-10260 0-20519-476-30575-1291-5639-8085-11143-16714-16443-25819-5164-8901-9852-17937-14132-27042 4213-9105 8969-18209 14065-27110 5300-9172 10735-17869 16374-25955 10124-883 20383-1359 30711-1359 10260 0 20519 476 30575 1291 5639 8085 11143 16714 16443 25819 5164 8901 9852 17937 14133 27042-4281 9105-8969 18209-14065 27110zm21946-8833c3669 9104 6794 18209 9376 27042-8901 2174-18277 4009-27993 5435 3329-5232 6658-10599 9784-16103 3125-5435 6047-10939 8833-16374zm-68895 72496c-6319-6522-12638-13793-18889-21742 6115 272 12366 476 18685 476 6387 0 12706-136 18889-476-6115 7949-12434 15219-18685 21742zm-50550-40019c-9648-1427-18956-3193-27857-5368 2514-8765 5639-17801 9172-26838 2786 5435 5707 10871 8901 16307 3193 5435 6455 10735 9784 15899zm50211-141392c6319 6523 12638 13793 18889 21742-6115-272-12366-476-18685-476-6387 0-12706 136-18889 476 6115-7949 12434-15219 18685-21742zm-50279 40019c-3329 5232-6658 10599-9784 16103-3125 5435-6047 10871-8833 16306-3669-9104-6794-18209-9376-27042 8901-2106 18277-3941 27993-5367zm-61489 85066c-24052-10259-39611-23712-39611-34380 0-10667 15559-24188 39611-34380 5843-2514 12230-4756 18820-6863 3873 13317 8969 27178 15287 41378-6251 14133-11279 27925-15083 41174-6726-2107-13113-4417-19024-6931zm36554 97092c-9241-5300-13249-25479-10124-51434 747-6387 1970-13113 3465-19976 13317 3261 27857 5775 43144 7406 9173 12570 18685 23984 28265 33972-22150 20587-42941 31866-57073 31866-3058-68-5639-680-7678-1835zm161164-51773c3193 25954-747 46134-9920 51502-2038 1223-4688 1767-7814 1767-14064 0-34923-11211-57073-31662 9512-9988 19024-21334 28061-33904 15356-1631 29896-4144 43213-7474 1563 6862 2786 13453 3533 19772zm26158-45319c-5843 2514-12230 4756-18820 6863-3873-13317-8969-27178-15287-41378 6251-14132 11279-27925 15084-41174 6726 2106 13113 4417 19092 6930 24052 10260 39611 23713 39611 34380-68 10667-15627 24188-39680 34380z"/></svg>