<svg xmlns="http://www.w3.org/2000/svg" viewBox="0 0 333334 271710" shape-rendering="geometricPrecision" text-rendering="geometricPrecision" image-rendering="optimizeQuality" fill-rule="evenodd" clip-rule="evenodd"><path d="M267860 212637h17137v-43813c0-848-355-1627-927-2199-571-571-1351-927-2199-927H177219v46939h17120c5416 0 9846 4430 9846 9846v39382c0 5415-4430 9846-9846 9846h-55628c-5415 0-9845-4430-9845-9846v-39382c0-5415 4430-9846 9845-9846h17121v-46939H51180c-849 0-1629 355-2200 926s-926 1351-926 2200v43813h17419c5416 0 9846 4430 9846 9846v39382c0 5415-4430 9846-9846 9846H9845c-5415 0-9846-4430-9846-9846v-39382c0-5415 4431-9846 9846-9846h16893v-43813c0-6732 2747-12845 7171-17270 4425-4424 10538-7171 17270-7171h104652V59074h-17121c-5415 0-9845-4430-9845-9846V9846c0-5415 4430-9846 9845-9846h55628c5416 0 9846 4430 9846 9846v39382c0 5415-4430 9846-9846 9846h-17120v85309h104652c6732 0 12845 2748 17269 7172 4425 4425 7172 10539 7172 17269v43813h17175c5415 0 9846 4430 9846 9846v39382c0 5415-4431 9846-9846 9846h-55628c-5415 0-9846-4430-9846-9846v-39382c0-5415 4430-9846 9846-9846z"/></svg>